<svg xmlns="http://www.w3.org/2000/svg" xml:space="preserve" xmlns:xlink="http://www.w3.org/1999/xlink" width="750" height="781.25" viewBox="0 0 750 781.25">
<rect width="694.375" height="694.375" fill="#ffffff" x="31.25" y="31.25" />
<g transform="scale(31.25)" fill="#000000"><path d="M21,1c1.1,0,2,0.9,2,2v18c0,1.1-0.9,2-2,2H3c-1.1,0-2-0.9-2-2V3c0-1.1,0.9-2,2-2H21 M21,0H3C1.34,0,0,1.34,0,3v18
	c0,1.66,1.34,3,3,3h18c1.66,0,3-1.34,3-3V3C24,1.34,22.66,0,21,0L21,0z"/></g>
<g fill="#000000">
<g transform="translate(315,75) scale(4.12)"><rect width="6" height="6" /></g>
<g transform="translate(459,75) scale(4.12)"><rect width="6" height="6" /></g>
<g transform="translate(315,99) scale(4.12)"><rect width="6" height="6" /></g>
<g transform="translate(387,99) scale(4.12)"><rect width="6" height="6" /></g>
<g transform="translate(435,99) scale(4.12)"><rect width="6" height="6" /></g>
<g transform="translate(267,123) scale(4.12)"><rect width="6" height="6" /></g>
<g transform="translate(291,123) scale(4.12)"><rect width="6" height="6" /></g>
<g transform="translate(315,123) scale(4.12)"><rect width="6" height="6" /></g>
<g transform="translate(339,123) scale(4.12)"><rect width="6" height="6" /></g>
<g transform="translate(363,123) scale(4.12)"><rect width="6" height="6" /></g>
<g transform="translate(459,123) scale(4.12)"><rect width="6" height="6" /></g>
<g transform="translate(267,147) scale(4.12)"><rect width="6" height="6" /></g>
<g transform="translate(315,147) scale(4.12)"><rect width="6" height="6" /></g>
<g transform="translate(387,147) scale(4.12)"><rect width="6" height="6" /></g>
<g transform="translate(411,147) scale(4.12)"><rect width="6" height="6" /></g>
<g transform="translate(267,171) scale(4.12)"><rect width="6" height="6" /></g>
<g transform="translate(291,171) scale(4.12)"><rect width="6" height="6" /></g>
<g transform="translate(315,171) scale(4.12)"><rect width="6" height="6" /></g>
<g transform="translate(339,171) scale(4.12)"><rect width="6" height="6" /></g>
<g transform="translate(387,171) scale(4.12)"><rect width="6" height="6" /></g>
<g transform="translate(411,171) scale(4.12)"><rect width="6" height="6" /></g>
<g transform="translate(267,195) scale(4.12)"><rect width="6" height="6" /></g>
<g transform="translate(291,195) scale(4.12)"><rect width="6" height="6" /></g>
<g transform="translate(315,195) scale(4.12)"><rect width="6" height="6" /></g>
<g transform="translate(435,195) scale(4.12)"><rect width="6" height="6" /></g>
<g transform="translate(267,219) scale(4.12)"><rect width="6" height="6" /></g>
<g transform="translate(315,219) scale(4.12)"><rect width="6" height="6" /></g>
<g transform="translate(363,219) scale(4.12)"><rect width="6" height="6" /></g>
<g transform="translate(411,219) scale(4.12)"><rect width="6" height="6" /></g>
<g transform="translate(459,219) scale(4.12)"><rect width="6" height="6" /></g>
<g transform="translate(267,243) scale(4.12)"><rect width="6" height="6" /></g>
<g transform="translate(315,243) scale(4.12)"><rect width="6" height="6" /></g>
<g transform="translate(339,243) scale(4.12)"><rect width="6" height="6" /></g>
<g transform="translate(363,243) scale(4.12)"><rect width="6" height="6" /></g>
<g transform="translate(411,243) scale(4.12)"><rect width="6" height="6" /></g>
<g transform="translate(435,243) scale(4.12)"><rect width="6" height="6" /></g>
<g transform="translate(459,243) scale(4.12)"><rect width="6" height="6" /></g>
<g transform="translate(75,267) scale(4.12)"><rect width="6" height="6" /></g>
<g transform="translate(123,267) scale(4.12)"><rect width="6" height="6" /></g>
<g transform="translate(147,267) scale(4.12)"><rect width="6" height="6" /></g>
<g transform="translate(171,267) scale(4.12)"><rect width="6" height="6" /></g>
<g transform="translate(195,267) scale(4.12)"><rect width="6" height="6" /></g>
<g transform="translate(219,267) scale(4.12)"><rect width="6" height="6" /></g>
<g transform="translate(315,267) scale(4.12)"><rect width="6" height="6" /></g>
<g transform="translate(363,267) scale(4.12)"><rect width="6" height="6" /></g>
<g transform="translate(387,267) scale(4.12)"><rect width="6" height="6" /></g>
<g transform="translate(435,267) scale(4.12)"><rect width="6" height="6" /></g>
<g transform="translate(507,267) scale(4.12)"><rect width="6" height="6" /></g>
<g transform="translate(531,267) scale(4.12)"><rect width="6" height="6" /></g>
<g transform="translate(555,267) scale(4.12)"><rect width="6" height="6" /></g>
<g transform="translate(579,267) scale(4.12)"><rect width="6" height="6" /></g>
<g transform="translate(603,267) scale(4.12)"><rect width="6" height="6" /></g>
<g transform="translate(123,291) scale(4.12)"><rect width="6" height="6" /></g>
<g transform="translate(147,291) scale(4.12)"><rect width="6" height="6" /></g>
<g transform="translate(171,291) scale(4.12)"><rect width="6" height="6" /></g>
<g transform="translate(195,291) scale(4.12)"><rect width="6" height="6" /></g>
<g transform="translate(267,291) scale(4.12)"><rect width="6" height="6" /></g>
<g transform="translate(291,291) scale(4.12)"><rect width="6" height="6" /></g>
<g transform="translate(315,291) scale(4.12)"><rect width="6" height="6" /></g>
<g transform="translate(363,291) scale(4.12)"><rect width="6" height="6" /></g>
<g transform="translate(387,291) scale(4.12)"><rect width="6" height="6" /></g>
<g transform="translate(459,291) scale(4.12)"><rect width="6" height="6" /></g>
<g transform="translate(483,291) scale(4.12)"><rect width="6" height="6" /></g>
<g transform="translate(531,291) scale(4.12)"><rect width="6" height="6" /></g>
<g transform="translate(627,291) scale(4.12)"><rect width="6" height="6" /></g>
<g transform="translate(75,315) scale(4.12)"><rect width="6" height="6" /></g>
<g transform="translate(147,315) scale(4.12)"><rect width="6" height="6" /></g>
<g transform="translate(171,315) scale(4.12)"><rect width="6" height="6" /></g>
<g transform="translate(195,315) scale(4.12)"><rect width="6" height="6" /></g>
<g transform="translate(219,315) scale(4.12)"><rect width="6" height="6" /></g>
<g transform="translate(387,315) scale(4.12)"><rect width="6" height="6" /></g>
<g transform="translate(411,315) scale(4.12)"><rect width="6" height="6" /></g>
<g transform="translate(435,315) scale(4.12)"><rect width="6" height="6" /></g>
<g transform="translate(507,315) scale(4.12)"><rect width="6" height="6" /></g>
<g transform="translate(555,315) scale(4.12)"><rect width="6" height="6" /></g>
<g transform="translate(579,315) scale(4.12)"><rect width="6" height="6" /></g>
<g transform="translate(627,315) scale(4.12)"><rect width="6" height="6" /></g>
<g transform="translate(651,315) scale(4.12)"><rect width="6" height="6" /></g>
<g transform="translate(75,339) scale(4.12)"><rect width="6" height="6" /></g>
<g transform="translate(123,339) scale(4.12)"><rect width="6" height="6" /></g>
<g transform="translate(147,339) scale(4.12)"><rect width="6" height="6" /></g>
<g transform="translate(243,339) scale(4.12)"><rect width="6" height="6" /></g>
<g transform="translate(267,339) scale(4.12)"><rect width="6" height="6" /></g>
<g transform="translate(315,339) scale(4.12)"><rect width="6" height="6" /></g>
<g transform="translate(411,339) scale(4.12)"><rect width="6" height="6" /></g>
<g transform="translate(531,339) scale(4.12)"><rect width="6" height="6" /></g>
<g transform="translate(651,339) scale(4.12)"><rect width="6" height="6" /></g>
<g transform="translate(99,363) scale(4.12)"><rect width="6" height="6" /></g>
<g transform="translate(147,363) scale(4.12)"><rect width="6" height="6" /></g>
<g transform="translate(171,363) scale(4.12)"><rect width="6" height="6" /></g>
<g transform="translate(219,363) scale(4.12)"><rect width="6" height="6" /></g>
<g transform="translate(243,363) scale(4.12)"><rect width="6" height="6" /></g>
<g transform="translate(267,363) scale(4.12)"><rect width="6" height="6" /></g>
<g transform="translate(291,363) scale(4.12)"><rect width="6" height="6" /></g>
<g transform="translate(315,363) scale(4.12)"><rect width="6" height="6" /></g>
<g transform="translate(339,363) scale(4.12)"><rect width="6" height="6" /></g>
<g transform="translate(363,363) scale(4.12)"><rect width="6" height="6" /></g>
<g transform="translate(387,363) scale(4.12)"><rect width="6" height="6" /></g>
<g transform="translate(411,363) scale(4.12)"><rect width="6" height="6" /></g>
<g transform="translate(435,363) scale(4.12)"><rect width="6" height="6" /></g>
<g transform="translate(459,363) scale(4.12)"><rect width="6" height="6" /></g>
<g transform="translate(483,363) scale(4.12)"><rect width="6" height="6" /></g>
<g transform="translate(507,363) scale(4.12)"><rect width="6" height="6" /></g>
<g transform="translate(555,363) scale(4.12)"><rect width="6" height="6" /></g>
<g transform="translate(603,363) scale(4.12)"><rect width="6" height="6" /></g>
<g transform="translate(627,363) scale(4.12)"><rect width="6" height="6" /></g>
<g transform="translate(651,363) scale(4.12)"><rect width="6" height="6" /></g>
<g transform="translate(75,387) scale(4.12)"><rect width="6" height="6" /></g>
<g transform="translate(123,387) scale(4.12)"><rect width="6" height="6" /></g>
<g transform="translate(147,387) scale(4.12)"><rect width="6" height="6" /></g>
<g transform="translate(243,387) scale(4.12)"><rect width="6" height="6" /></g>
<g transform="translate(267,387) scale(4.12)"><rect width="6" height="6" /></g>
<g transform="translate(315,387) scale(4.12)"><rect width="6" height="6" /></g>
<g transform="translate(363,387) scale(4.12)"><rect width="6" height="6" /></g>
<g transform="translate(411,387) scale(4.12)"><rect width="6" height="6" /></g>
<g transform="translate(459,387) scale(4.12)"><rect width="6" height="6" /></g>
<g transform="translate(531,387) scale(4.12)"><rect width="6" height="6" /></g>
<g transform="translate(579,387) scale(4.12)"><rect width="6" height="6" /></g>
<g transform="translate(627,387) scale(4.12)"><rect width="6" height="6" /></g>
<g transform="translate(75,411) scale(4.12)"><rect width="6" height="6" /></g>
<g transform="translate(123,411) scale(4.12)"><rect width="6" height="6" /></g>
<g transform="translate(147,411) scale(4.12)"><rect width="6" height="6" /></g>
<g transform="translate(195,411) scale(4.12)"><rect width="6" height="6" /></g>
<g transform="translate(219,411) scale(4.12)"><rect width="6" height="6" /></g>
<g transform="translate(243,411) scale(4.12)"><rect width="6" height="6" /></g>
<g transform="translate(315,411) scale(4.12)"><rect width="6" height="6" /></g>
<g transform="translate(435,411) scale(4.12)"><rect width="6" height="6" /></g>
<g transform="translate(459,411) scale(4.12)"><rect width="6" height="6" /></g>
<g transform="translate(483,411) scale(4.12)"><rect width="6" height="6" /></g>
<g transform="translate(507,411) scale(4.12)"><rect width="6" height="6" /></g>
<g transform="translate(531,411) scale(4.12)"><rect width="6" height="6" /></g>
<g transform="translate(555,411) scale(4.12)"><rect width="6" height="6" /></g>
<g transform="translate(579,411) scale(4.12)"><rect width="6" height="6" /></g>
<g transform="translate(627,411) scale(4.12)"><rect width="6" height="6" /></g>
<g transform="translate(651,411) scale(4.12)"><rect width="6" height="6" /></g>
<g transform="translate(75,435) scale(4.12)"><rect width="6" height="6" /></g>
<g transform="translate(123,435) scale(4.12)"><rect width="6" height="6" /></g>
<g transform="translate(147,435) scale(4.12)"><rect width="6" height="6" /></g>
<g transform="translate(195,435) scale(4.12)"><rect width="6" height="6" /></g>
<g transform="translate(291,435) scale(4.12)"><rect width="6" height="6" /></g>
<g transform="translate(363,435) scale(4.12)"><rect width="6" height="6" /></g>
<g transform="translate(435,435) scale(4.12)"><rect width="6" height="6" /></g>
<g transform="translate(483,435) scale(4.12)"><rect width="6" height="6" /></g>
<g transform="translate(507,435) scale(4.12)"><rect width="6" height="6" /></g>
<g transform="translate(531,435) scale(4.12)"><rect width="6" height="6" /></g>
<g transform="translate(555,435) scale(4.12)"><rect width="6" height="6" /></g>
<g transform="translate(651,435) scale(4.12)"><rect width="6" height="6" /></g>
<g transform="translate(75,459) scale(4.12)"><rect width="6" height="6" /></g>
<g transform="translate(123,459) scale(4.12)"><rect width="6" height="6" /></g>
<g transform="translate(147,459) scale(4.12)"><rect width="6" height="6" /></g>
<g transform="translate(171,459) scale(4.12)"><rect width="6" height="6" /></g>
<g transform="translate(195,459) scale(4.12)"><rect width="6" height="6" /></g>
<g transform="translate(219,459) scale(4.12)"><rect width="6" height="6" /></g>
<g transform="translate(315,459) scale(4.12)"><rect width="6" height="6" /></g>
<g transform="translate(339,459) scale(4.12)"><rect width="6" height="6" /></g>
<g transform="translate(363,459) scale(4.12)"><rect width="6" height="6" /></g>
<g transform="translate(387,459) scale(4.12)"><rect width="6" height="6" /></g>
<g transform="translate(435,459) scale(4.12)"><rect width="6" height="6" /></g>
<g transform="translate(459,459) scale(4.12)"><rect width="6" height="6" /></g>
<g transform="translate(483,459) scale(4.12)"><rect width="6" height="6" /></g>
<g transform="translate(507,459) scale(4.12)"><rect width="6" height="6" /></g>
<g transform="translate(531,459) scale(4.12)"><rect width="6" height="6" /></g>
<g transform="translate(555,459) scale(4.12)"><rect width="6" height="6" /></g>
<g transform="translate(603,459) scale(4.12)"><rect width="6" height="6" /></g>
<g transform="translate(267,483) scale(4.12)"><rect width="6" height="6" /></g>
<g transform="translate(339,483) scale(4.12)"><rect width="6" height="6" /></g>
<g transform="translate(411,483) scale(4.12)"><rect width="6" height="6" /></g>
<g transform="translate(459,483) scale(4.12)"><rect width="6" height="6" /></g>
<g transform="translate(555,483) scale(4.12)"><rect width="6" height="6" /></g>
<g transform="translate(579,483) scale(4.12)"><rect width="6" height="6" /></g>
<g transform="translate(291,507) scale(4.12)"><rect width="6" height="6" /></g>
<g transform="translate(315,507) scale(4.12)"><rect width="6" height="6" /></g>
<g transform="translate(363,507) scale(4.12)"><rect width="6" height="6" /></g>
<g transform="translate(459,507) scale(4.12)"><rect width="6" height="6" /></g>
<g transform="translate(507,507) scale(4.12)"><rect width="6" height="6" /></g>
<g transform="translate(555,507) scale(4.12)"><rect width="6" height="6" /></g>
<g transform="translate(603,507) scale(4.12)"><rect width="6" height="6" /></g>
<g transform="translate(627,507) scale(4.12)"><rect width="6" height="6" /></g>
<g transform="translate(651,507) scale(4.12)"><rect width="6" height="6" /></g>
<g transform="translate(267,531) scale(4.12)"><rect width="6" height="6" /></g>
<g transform="translate(291,531) scale(4.12)"><rect width="6" height="6" /></g>
<g transform="translate(315,531) scale(4.12)"><rect width="6" height="6" /></g>
<g transform="translate(363,531) scale(4.12)"><rect width="6" height="6" /></g>
<g transform="translate(411,531) scale(4.12)"><rect width="6" height="6" /></g>
<g transform="translate(459,531) scale(4.12)"><rect width="6" height="6" /></g>
<g transform="translate(555,531) scale(4.12)"><rect width="6" height="6" /></g>
<g transform="translate(579,531) scale(4.12)"><rect width="6" height="6" /></g>
<g transform="translate(267,555) scale(4.12)"><rect width="6" height="6" /></g>
<g transform="translate(315,555) scale(4.12)"><rect width="6" height="6" /></g>
<g transform="translate(387,555) scale(4.12)"><rect width="6" height="6" /></g>
<g transform="translate(411,555) scale(4.12)"><rect width="6" height="6" /></g>
<g transform="translate(435,555) scale(4.12)"><rect width="6" height="6" /></g>
<g transform="translate(459,555) scale(4.12)"><rect width="6" height="6" /></g>
<g transform="translate(483,555) scale(4.12)"><rect width="6" height="6" /></g>
<g transform="translate(507,555) scale(4.12)"><rect width="6" height="6" /></g>
<g transform="translate(531,555) scale(4.12)"><rect width="6" height="6" /></g>
<g transform="translate(555,555) scale(4.12)"><rect width="6" height="6" /></g>
<g transform="translate(603,555) scale(4.12)"><rect width="6" height="6" /></g>
<g transform="translate(267,579) scale(4.12)"><rect width="6" height="6" /></g>
<g transform="translate(291,579) scale(4.12)"><rect width="6" height="6" /></g>
<g transform="translate(315,579) scale(4.12)"><rect width="6" height="6" /></g>
<g transform="translate(339,579) scale(4.12)"><rect width="6" height="6" /></g>
<g transform="translate(363,579) scale(4.12)"><rect width="6" height="6" /></g>
<g transform="translate(411,579) scale(4.12)"><rect width="6" height="6" /></g>
<g transform="translate(435,579) scale(4.12)"><rect width="6" height="6" /></g>
<g transform="translate(459,579) scale(4.12)"><rect width="6" height="6" /></g>
<g transform="translate(483,579) scale(4.12)"><rect width="6" height="6" /></g>
<g transform="translate(507,579) scale(4.12)"><rect width="6" height="6" /></g>
<g transform="translate(555,579) scale(4.12)"><rect width="6" height="6" /></g>
<g transform="translate(579,579) scale(4.12)"><rect width="6" height="6" /></g>
<g transform="translate(603,579) scale(4.12)"><rect width="6" height="6" /></g>
<g transform="translate(627,579) scale(4.12)"><rect width="6" height="6" /></g>
<g transform="translate(651,579) scale(4.12)"><rect width="6" height="6" /></g>
<g transform="translate(267,603) scale(4.12)"><rect width="6" height="6" /></g>
<g transform="translate(291,603) scale(4.12)"><rect width="6" height="6" /></g>
<g transform="translate(387,603) scale(4.12)"><rect width="6" height="6" /></g>
<g transform="translate(411,603) scale(4.12)"><rect width="6" height="6" /></g>
<g transform="translate(459,603) scale(4.12)"><rect width="6" height="6" /></g>
<g transform="translate(579,603) scale(4.12)"><rect width="6" height="6" /></g>
<g transform="translate(603,603) scale(4.12)"><rect width="6" height="6" /></g>
<g transform="translate(651,603) scale(4.12)"><rect width="6" height="6" /></g>
<g transform="translate(291,627) scale(4.12)"><rect width="6" height="6" /></g>
<g transform="translate(411,627) scale(4.12)"><rect width="6" height="6" /></g>
<g transform="translate(435,627) scale(4.12)"><rect width="6" height="6" /></g>
<g transform="translate(459,627) scale(4.12)"><rect width="6" height="6" /></g>
<g transform="translate(483,627) scale(4.12)"><rect width="6" height="6" /></g>
<g transform="translate(507,627) scale(4.12)"><rect width="6" height="6" /></g>
<g transform="translate(531,627) scale(4.12)"><rect width="6" height="6" /></g>
<g transform="translate(555,627) scale(4.12)"><rect width="6" height="6" /></g>
<g transform="translate(579,627) scale(4.12)"><rect width="6" height="6" /></g>
<g transform="translate(651,627) scale(4.12)"><rect width="6" height="6" /></g>
<g transform="translate(267,651) scale(4.12)"><rect width="6" height="6" /></g>
<g transform="translate(315,651) scale(4.12)"><rect width="6" height="6" /></g>
<g transform="translate(363,651) scale(4.12)"><rect width="6" height="6" /></g>
<g transform="translate(387,651) scale(4.12)"><rect width="6" height="6" /></g>
<g transform="translate(411,651) scale(4.12)"><rect width="6" height="6" /></g>
<g transform="translate(435,651) scale(4.12)"><rect width="6" height="6" /></g>
<g transform="translate(483,651) scale(4.12)"><rect width="6" height="6" /></g>
<g transform="translate(507,651) scale(4.12)"><rect width="6" height="6" /></g>
<g transform="translate(531,651) scale(4.12)"><rect width="6" height="6" /></g>
<g transform="translate(555,651) scale(4.12)"><rect width="6" height="6" /></g>
<g transform="translate(579,651) scale(4.12)"><rect width="6" height="6" /></g>
<g transform="translate(603,651) scale(4.12)"><rect width="6" height="6" /></g>
<g transform="translate(627,651) scale(4.12)"><rect width="6" height="6" /></g>
<g transform="translate(651,651) scale(4.12)"><rect width="6" height="6" /></g>
<g transform="translate(75,75)"><g transform="scale(12)"><path d="M0,0v14h14V0H0z M12,12H2V2h10V12z"/></g></g>
<g transform="translate(507,75)"><g transform="scale(12)"><path d="M0,0v14h14V0H0z M12,12H2V2h10V12z"/></g></g>
<g transform="translate(75,507)"><g transform="scale(12)"><path d="M0,0v14h14V0H0z M12,12H2V2h10V12z"/></g></g>
<g transform="translate(123,123)"><g transform="scale(12)"><rect width="6" height="6" /></g></g>
<g transform="translate(555,123)"><g transform="scale(12)"><rect width="6" height="6" /></g></g>
<g transform="translate(123,555)"><g transform="scale(12)"><rect width="6" height="6" /></g></g>
</g><g transform="translate(315.63645154723,739.58333333333) scale(0.26058631921824)"><path fill="#FFFFFF" d="M4.4921875,96.923828125l8.935546875-0.78125q0.634765625,5.37109375,2.9541015625,8.8134765625t7.2021484375,5.56640625t10.986328125,2.1240234375q5.419921875,0,9.5703125-1.611328125t6.1767578125-4.4189453125t2.0263671875-6.1279296875q0-3.369140625-1.953125-5.8837890625t-6.4453125-4.2236328125q-2.880859375-1.123046875-12.744140625-3.4912109375t-13.818359375-4.4677734375q-5.126953125-2.685546875-7.6416015625-6.6650390625t-2.5146484375-8.9111328125q0-5.419921875,3.076171875-10.1318359375t8.984375-7.1533203125t13.134765625-2.44140625q7.958984375,0,14.0380859375,2.5634765625t9.3505859375,7.5439453125t3.515625,11.279296875l-9.08203125,0.68359375q-0.732421875-6.787109375-4.9560546875-10.25390625t-12.4755859375-3.466796875q-8.59375,0-12.5244140625,3.1494140625t-3.9306640625,7.5927734375q0,3.857421875,2.783203125,6.34765625q2.734375,2.490234375,14.2822265625,5.1025390625t15.8447265625,4.5654296875q6.25,2.880859375,9.228515625,7.2998046875t2.978515625,10.1806640625q0,5.712890625-3.271484375,10.7666015625t-9.3994140625,7.861328125t-13.7939453125,2.8076171875q-9.716796875,0-16.2841796875-2.83203125t-10.302734375-8.5205078125t-3.9306640625-12.8662109375z M125.48828125,94.82421875l9.47265625,2.392578125q-2.978515625,11.669921875-10.7177734375,17.7978515625t-18.9208984375,6.1279296875q-11.572265625,0-18.8232421875-4.7119140625t-11.03515625-13.6474609375t-3.7841796875-19.189453125q0-11.181640625,4.2724609375-19.5068359375t12.158203125-12.646484375t17.3583984375-4.3212890625q10.7421875,0,18.06640625,5.46875t10.205078125,15.380859375l-9.326171875,2.197265625q-2.490234375-7.8125-7.2265625-11.376953125t-11.9140625-3.564453125q-8.251953125,0-13.7939453125,3.955078125t-7.7880859375,10.6201171875t-2.24609375,13.7451171875q0,9.130859375,2.6611328125,15.9423828125t8.2763671875,10.1806640625t12.158203125,3.369140625q7.958984375,0,13.4765625-4.58984375t7.470703125-13.623046875z M138.76953125,119.921875l27.490234375-71.58203125l10.205078125,0l29.296875,71.58203125l-10.791015625,0l-8.349609375-21.6796875l-29.931640625,0l-7.861328125,21.6796875l-10.05859375,0z M159.423828125,90.52734375l24.267578125,0l-7.470703125-19.82421875q-3.41796875-9.033203125-5.078125-14.84375q-1.3671875,6.884765625-3.857421875,13.671875z M213.232421875,119.921875l0-71.58203125l9.716796875,0l37.59765625,56.201171875l0-56.201171875l9.08203125,0l0,71.58203125l-9.716796875,0l-37.59765625-56.25l0,56.25l-9.08203125,0z  M313.037109375,119.921875l0-71.58203125l14.2578125,0l16.943359375,50.68359375q2.34375,7.080078125,3.41796875,10.595703125q1.220703125-3.90625,3.80859375-11.474609375l17.138671875-49.8046875l12.744140625,0l0,71.58203125l-9.130859375,0l0-59.912109375l-20.80078125,59.912109375l-8.544921875,0l-20.703125-60.9375l0,60.9375l-9.130859375,0z M396.826171875,119.921875l0-71.58203125l51.7578125,0l0,8.447265625l-42.28515625,0l0,21.923828125l39.599609375,0l0,8.3984375l-39.599609375,0l0,24.365234375l43.9453125,0l0,8.447265625l-53.41796875,0z"/></g></svg>