<svg width="25" height="25" viewBox="0 0 25 25" fill="none" xmlns="http://www.w3.org/2000/svg">

<path d="M21.0945 7.03125H3.90704C3.47557 7.03125 3.12579 7.38103 3.12579 7.8125V20.3125C3.12579 20.744 3.47557 21.0937 3.90704 21.0937H21.0945C21.526 21.0937 21.8758 20.744 21.8758 20.3125V7.8125C21.8758 7.38103 21.526 7.03125 21.0945 7.03125Z" fill="current" stroke="current" stroke-width="1.24352" stroke-linecap="round" stroke-linejoin="round"/>
<path d="M16.4062 7.03125V5.46875C16.4062 5.05435 16.2416 4.65692 15.9486 4.3639C15.6556 4.07087 15.2582 3.90625 14.8438 3.90625H10.1562C9.74185 3.90625 9.34442 4.07087 9.0514 4.3639C8.75837 4.65692 8.59375 5.05435 8.59375 5.46875V7.03125" stroke="current" stroke-width="1.24352" stroke-linecap="round" stroke-linejoin="round"/>
<path d="M23 12.3525C19.8088 13.6667 16.186 14.3566 12.4992 14.3525C8.81301 14.3566 5.19084 13.6669 2 12.3532" stroke="current" stroke-width="1.24352" stroke-linecap="round" stroke-linejoin="round"/>
<path d="M11.3281 11.7188H13.6719" stroke="current" stroke-width="1.24352" stroke-linecap="round" stroke-linejoin="round"/>

</svg>
