<svg width="25" height="25" viewBox="0 0 25 25" fill="#000000" xmlns="http://www.w3.org/2000/svg">
<path d="M20.3124 3.90625H4.68744C4.25597 3.90625 3.90619 4.25603 3.90619 4.6875V20.3125C3.90619 20.744 4.25597 21.0938 4.68744 21.0938H20.3124C20.7439 21.0938 21.0937 20.744 21.0937 20.3125V4.6875C21.0937 4.25603 20.7439 3.90625 20.3124 3.90625Z" fill="current" stroke="current" stroke-width="1.24352" stroke-linecap="round" stroke-linejoin="round"/>
<path d="M17.1874 2.34375V5.46875" stroke="current" stroke-width="1.24352" stroke-linecap="round" stroke-linejoin="round"/>
<path d="M7.81238 2.34375V5.46875" stroke="current" stroke-width="1.24352" stroke-linecap="round" stroke-linejoin="round"/>
<path d="M2 8.52832H22" stroke="current" stroke-width="1.24352" stroke-linecap="round" stroke-linejoin="round"/>
<path d="M8.98438 12.5H11.7188L10.1562 14.4531C10.4132 14.4531 10.6661 14.5165 10.8927 14.6376C11.1193 14.7587 11.3125 14.9338 11.4553 15.1473C11.5981 15.3609 11.686 15.6064 11.7112 15.8621C11.7364 16.1178 11.6982 16.3757 11.6 16.6131C11.5017 16.8505 11.3465 17.06 11.1479 17.2231C10.9494 17.3861 10.7137 17.4977 10.4618 17.548C10.2098 17.5982 9.94937 17.5855 9.70348 17.5111C9.45759 17.4366 9.23385 17.3027 9.05207 17.1212" stroke="current" stroke-width="1.24352" stroke-linecap="round" stroke-linejoin="round"/>
<path d="M14.0626 13.6719L15.6251 12.5V17.5781" stroke="current" stroke-width="1.24352" stroke-linecap="round" stroke-linejoin="round"/>
</svg>
