<?xml version="1.0" encoding="UTF-8"?>
<svg id="Capa_1" data-name="Capa 1" xmlns="http://www.w3.org/2000/svg" viewBox="0 0 20 19.39" width="22" height="22">
  <path d="M18.94,13.33l1.06-1.19h0c-.53-.53-1.5-.63-2.02-.09h0l-3.05,3.14-4.31,.83c-.27,.05-.4-.1-.45-.37-.05-.27,.16-.47,.31-.49,.14-.03,.04,0,.06,0l3.53-.62h0c0-.8-.95-1.56-1.73-1.43l-4.4,.74v-.02s-3.52-1.02-3.52-1.02h0c-.16-.06-.33-.09-.51-.09-.08,0-.17,0-.25,.02h0l-3.07,.51c-.32,0-.58,.26-.58,.58,0,.06,.01,.13,.03,.18l.78,4.85H.81c.05,.28,.28,.49,.57,.49,.08,0,.15-.01,.21-.04l3.71-.7,3.11,.78h0s.06,.01,.09,.01c.02,0,.04,0,.07,0h0l5.76-.95c.11,0,.22-.05,.28-.13h0l1.17-1.4,3.15-3.56h0Zm-10.37,6.05h0" fill= "current" fill-rule= "evenodd" stroke-linecap="round"/>
  <path d="M10.65,0C6.51,0,3.16,3.35,3.16,7.49c0,1.8,.49,3.04,1.32,4.25,.06,0,.17,.02,.23,.02l3.16,1.26c1.25-.22,2.5-.45,3.75-.67,1.4-.2,2.44,.3,3.18,1.37,2-1.34,3.32-3.63,3.32-6.22,0-4.13-3.35-7.49-7.49-7.49h0Z" fill= "current" stroke-linecap= "round" />
  <path d="M10.93,6.52h-.46c-1.22,0-2.21,1-2.21,2.21v.78c0,.23,.19,.42,.42,.42h4.04c.23,0,.42-.19,.42-.42v-.78c0-1.22-1-2.21-2.21-2.21h0Zm-.46-4c-.8,.14-1.33,.9-1.19,1.7,.14,.8,.9,1.33,1.7,1.19,.8-.14,1.33-.9,1.19-1.7-.14-.8-.9-1.33-1.7-1.19h0Zm-.12-.69c-1.18,.21-1.97,1.33-1.76,2.51,.12,.67,.53,1.21,1.07,1.51-1.23,.43-2.11,1.6-2.11,2.97v.66c0,.64,.52,1.16,1.16,1.16h3.99c.64,0,1.16-.52,1.16-1.16v-.66c0-1.36-.87-2.52-2.08-2.96,.79-.44,1.25-1.34,1.09-2.28-.21-1.18-1.33-1.97-2.51-1.76h0Z" fill= "#fefefe" fill-rule= "evenodd"/>
</svg>
