<svg width="25" height="25" viewBox="0 0 25 25" fill="none" xmlns="http://www.w3.org/2000/svg">
<path d="M9.375 21.0939H4.6875C4.4803 21.0939 4.28159 21.0116 4.13507 20.8651C3.98856 20.7185 3.90625 20.5198 3.90625 20.3126V15.9487C3.90625 15.8461 3.92646 15.7445 3.96572 15.6498C4.00498 15.555 4.06253 15.4688 4.13507 15.3963L15.8538 3.67755C16.0003 3.53104 16.199 3.44873 16.4062 3.44873C16.6135 3.44873 16.8122 3.53104 16.9587 3.67755L21.3226 8.04145C21.4691 8.18796 21.5514 8.38668 21.5514 8.59388C21.5514 8.80108 21.4691 8.99979 21.3226 9.1463L9.375 21.0939Z" fill="current" stroke="current" stroke-width="1.5" stroke-linecap="round" stroke-linejoin="round"/>
<path d="M10 3L22 15" stroke="current" stroke-width="1.5" stroke-linecap="round" stroke-linejoin="round"/>
</svg>
