<?xml version="1.0" encoding="UTF-8"?>
<svg id="Capa_1" data-name="Capa 1" xmlns="http://www.w3.org/2000/svg" viewBox="0 0 18.29 20" width="20" height="20">
  <path d="M18.28,15.46c.07-.71-.28-1.13-.53-1.67-.21-.5-.39-1.1-.53-1.67-.28-1.35-.35-2.62-.35-4.04s-.25-2.62-.74-3.65c-.28-.53-.53-.96-.85-1.38-.18-.21-.35-.39-.5-.6-.21-.25-.6-.57-.85-.78-.11-.07-.21-.18-.32-.25-2.62-1.95-6.63-1.88-9.15,.18-.71,.57-1.1,.96-1.63,1.7-.14,.18-.28,.43-.43,.64-.53,1.03-.92,2.09-.96,3.48-.07,1.45,0,2.69-.25,4.15C.77,13.79,.2,14.25,.06,14.82c-.18,.71,.07,1.31,.43,1.67,.5,.46,.85,.5,1.7,.5H15.41c.67,0,1.49,.07,1.99-.21,.43-.25,.82-.67,.89-1.31h0Z" fill= "current"/>
  <path d="M13.11,19.22c.07-.39-.11-.74-.32-.92-.25-.21-.53-.21-.99-.21H6.87c-.35,0-.85-.07-1.13,.07-.71,.35-.71,1.24-.25,1.6,.32,.25,.5,.25,.99,.25h4.96c.35,0,.85,.04,1.13-.11,.25-.11,.46-.39,.53-.67h0Z" fill= "current"/>
</svg>