<svg width="25" height="25" viewBox="0 0 25 25" fill="none" xmlns="http://www.w3.org/2000/svg">

<path d="M20.3124 3.90625H4.68744C4.25597 3.90625 3.90619 4.25603 3.90619 4.6875V20.3125C3.90619 20.744 4.25597 21.0938 4.68744 21.0938H20.3124C20.7439 21.0938 21.0937 20.744 21.0937 20.3125V4.6875C21.0937 4.25603 20.7439 3.90625 20.3124 3.90625Z" fill="current" stroke="current" stroke-width="1.24352" stroke-linecap="round" stroke-linejoin="round"/>
<path d="M17.1874 2.34375V5.46875" stroke="current" stroke-width="1.24352" stroke-linecap="round" stroke-linejoin="round"/>
<path d="M7.81238 2.34375V5.46875" stroke="current" stroke-width="1.24352" stroke-linecap="round" stroke-linejoin="round"/>
<path d="M2 8.44043H22" stroke="current" stroke-width="1.24352" stroke-linecap="round" stroke-linejoin="round"/>

<path d="M11.2143 18.9697H9.10712C9.01398 18.9697 8.92465 18.9327 8.85878 18.8669C8.79292 18.801 8.75592 18.7117 8.75592 18.6185V16.6568C8.75592 16.6107 8.765 16.565 8.78265 16.5224C8.8003 16.4798 8.82617 16.4411 8.85878 16.4085L14.1268 11.1405C14.1926 11.0746 14.282 11.0376 14.3751 11.0376C14.4683 11.0376 14.5576 11.0746 14.6234 11.1405L16.5852 13.1022C16.651 13.168 16.688 13.2574 16.688 13.3505C16.688 13.4437 16.651 13.533 16.5852 13.5989L11.2143 18.9697Z" stroke="current" stroke-width="0.829016" stroke-linecap="round" stroke-linejoin="round"/>
<path d="M12.9703 12.2969L15.4287 14.7553" stroke="current" stroke-width="0.829016" stroke-linecap="round" stroke-linejoin="round"/>
</svg>
