<?xml version="1.0" encoding="UTF-8"?>
<svg id="Capa_1" data-name="Capa 1" xmlns="http://www.w3.org/2000/svg" viewBox="0 0 23 19.25" width="23" height="23">
  <path d="M5.76,18.19l.11,.06s.08,.03,.11,.04l.77,.19c.35,.09,.68,.17,1.03,.25,.69,.16,1.39,.31,2.13,.41,1.3,.17,3.58,.15,4.85-.1,.71-.14,1.32-.36,1.99-.56,.58-.17,.45-.13,.52-.76,.04-.41,.06-.82,.08-1.23,.12-2.51,.03-4.2-2.09-5.52-1.36-.85-2.81-.64-4.47-.64-.91,0-1.47,.03-2.25,.36-1.17,.49-2.09,1.35-2.49,2.64-.22,.72-.23,1.52-.23,2.31,0,.87-.03,1.68-.07,2.55h0Z" fill= "current"/>
  <path d="M5.02,15.78c.11-.84-.09-1.35,.18-2.24,.21-.7,.38-1.15,.74-1.69,.59-.88,1.54-1.67,2.8-2.07-.08-.16-.51-.5-.88-1.21-.34-.65-.28-.94-.4-1.67-.88-.02-1.77,0-2.66,0-.85,0-1.54,.1-2.24,.42C1.46,7.82,.45,8.85,.11,10.22c-.17,.67-.1,1.82-.1,2.57v1.96c.06,.2,.2,.2,.45,.26,.97,.25,2.35,.57,3.37,.65,.39,.03,.79,.13,1.19,.12h0Z" fill= "current"/>
  <path d="M14.54,9.74c.32,.3,1.71,.56,2.68,2.01,.88,1.31,.82,2.12,.87,3.87,.42,0,2.11-.28,2.59-.38,.78-.17,1.6-.48,2.25-.78,.09-.46,.06-3.07,0-3.6-.23-1.88-1.61-3.56-3.51-3.89-.6-.1-2.91-.09-3.61-.07-.16,.89-.06,1.39-.77,2.31-.17,.22-.32,.33-.5,.53h0Z" fill= "current"/>
  <path d="M11.29,3.47c-1.92,.21-3.36,1.87-3.05,3.65,.3,1.7,1.69,3.19,3.66,3.07,.99-.06,1.78-.61,2.22-1.12,.59-.68,.88-1.35,.8-2.55-.11-1.74-1.73-3.25-3.64-3.04h0Z" fill= "current"/>
  <path d="M9.05,3.61c.06-1.89-1.4-3.4-3.2-3.45-1.88-.06-3.47,1.38-3.53,3.15-.08,2.3,2.35,4.07,4.67,3.25,1.01-.35,.16-.67,1.21-2.11,.2-.27,.56-.68,.86-.84h0Z" fill= "current"/>
  <path d="M13.8,3.3c.34,.29,.77,.34,1.35,1.23,.33,.52,.58,1.2,.65,1.94,.84,.24,1.33,.42,2.27,.17,2.33-.61,3.14-3.28,1.9-5.16-.66-.99-2.15-1.87-3.81-1.31-.71,.24-1.3,.65-1.64,1.1-.36,.48-.77,1.19-.72,2.02h0Z" fill= "current"/>
</svg>