<svg width="32" height="32" viewBox="0 0 32 32" fill="none" xmlns="http://www.w3.org/2000/svg">
<path d="M15.0696 9.26367V15.4943" stroke="#00507D" stroke-linecap="round" stroke-linejoin="round"/>
<path d="M16.6853 9.26369V15.4943" stroke="#00507D" stroke-linecap="round" stroke-linejoin="round"/>
<path d="M17.1958 3.125V3.32031C17.1958 3.58887 17.1608 3.82975 17.0908 4.04297C17.0208 4.25618 16.9207 4.43766 16.7905 4.5874C16.6619 4.73714 16.5073 4.85189 16.3267 4.93164C16.146 5.00977 15.9458 5.04883 15.7261 5.04883C15.508 5.04883 15.3086 5.00977 15.1279 4.93164C14.9489 4.85189 14.7935 4.73714 14.6616 4.5874C14.5298 4.43766 14.4272 4.25618 14.354 4.04297C14.2824 3.82975 14.2466 3.58887 14.2466 3.32031V3.125C14.2466 2.85645 14.2824 2.61637 14.354 2.40479C14.4256 2.19157 14.5265 2.01009 14.6567 1.86035C14.7886 1.70898 14.944 1.59424 15.123 1.51611C15.3037 1.43636 15.5031 1.39648 15.7212 1.39648C15.9409 1.39648 16.1411 1.43636 16.3218 1.51611C16.5024 1.59424 16.6579 1.70898 16.7881 1.86035C16.9183 2.01009 17.0184 2.19157 17.0884 2.40479C17.16 2.61637 17.1958 2.85645 17.1958 3.125ZM16.583 3.32031V3.12012C16.583 2.92155 16.5635 2.74658 16.5244 2.59521C16.487 2.44222 16.4308 2.31445 16.356 2.21191C16.2827 2.10775 16.1924 2.02962 16.085 1.97754C15.9775 1.92383 15.8563 1.89697 15.7212 1.89697C15.5861 1.89697 15.4657 1.92383 15.3599 1.97754C15.2541 2.02962 15.1637 2.10775 15.0889 2.21191C15.0156 2.31445 14.9595 2.44222 14.9204 2.59521C14.8813 2.74658 14.8618 2.92155 14.8618 3.12012V3.32031C14.8618 3.51888 14.8813 3.69466 14.9204 3.84766C14.9595 4.00065 15.0164 4.13005 15.0913 4.23584C15.1678 4.34001 15.259 4.41895 15.3647 4.47266C15.4705 4.52474 15.591 4.55078 15.7261 4.55078C15.8628 4.55078 15.984 4.52474 16.0898 4.47266C16.1956 4.41895 16.2852 4.34001 16.3584 4.23584C16.4316 4.13005 16.487 4.00065 16.5244 3.84766C16.5635 3.69466 16.583 3.51888 16.583 3.32031Z" fill="#00507D"/>
<path d="M3.1958 27.125V27.3203C3.1958 27.5889 3.16081 27.8298 3.09082 28.043C3.02083 28.2562 2.92074 28.4377 2.79053 28.5874C2.66195 28.7371 2.50732 28.8519 2.32666 28.9316C2.146 29.0098 1.9458 29.0488 1.72607 29.0488C1.50798 29.0488 1.30859 29.0098 1.12793 28.9316C0.948893 28.8519 0.793457 28.7371 0.661621 28.5874C0.529785 28.4377 0.427246 28.2562 0.354004 28.043C0.282389 27.8298 0.246582 27.5889 0.246582 27.3203V27.125C0.246582 26.8564 0.282389 26.6164 0.354004 26.4048C0.425618 26.1916 0.52653 26.0101 0.656738 25.8604C0.788574 25.709 0.94401 25.5942 1.12305 25.5161C1.30371 25.4364 1.50309 25.3965 1.72119 25.3965C1.94092 25.3965 2.14111 25.4364 2.32178 25.5161C2.50244 25.5942 2.65788 25.709 2.78809 25.8604C2.91829 26.0101 3.01839 26.1916 3.08838 26.4048C3.15999 26.6164 3.1958 26.8564 3.1958 27.125ZM2.58301 27.3203V27.1201C2.58301 26.9215 2.56348 26.7466 2.52441 26.5952C2.48698 26.4422 2.43083 26.3145 2.35596 26.2119C2.28271 26.1077 2.19238 26.0296 2.08496 25.9775C1.97754 25.9238 1.85628 25.897 1.72119 25.897C1.5861 25.897 1.46566 25.9238 1.35986 25.9775C1.25407 26.0296 1.16374 26.1077 1.08887 26.2119C1.01562 26.3145 0.959473 26.4422 0.92041 26.5952C0.881348 26.7466 0.861816 26.9215 0.861816 27.1201V27.3203C0.861816 27.5189 0.881348 27.6947 0.92041 27.8477C0.959473 28.0007 1.01644 28.13 1.09131 28.2358C1.16781 28.34 1.25895 28.4189 1.36475 28.4727C1.47054 28.5247 1.59098 28.5508 1.72607 28.5508C1.86279 28.5508 1.98405 28.5247 2.08984 28.4727C2.19564 28.4189 2.28516 28.34 2.3584 28.2358C2.43164 28.13 2.48698 28.0007 2.52441 27.8477C2.56348 27.6947 2.58301 27.5189 2.58301 27.3203Z" fill="#00507D"/>
<path d="M16.2314 22.0845C16.2314 22.0112 16.2201 21.9461 16.1973 21.8892C16.1761 21.8322 16.1379 21.7801 16.0825 21.7329C16.0272 21.6857 15.9491 21.6401 15.8481 21.5962C15.7489 21.5506 15.6219 21.5042 15.4673 21.457C15.298 21.4049 15.1418 21.3472 14.9985 21.2837C14.8569 21.2186 14.7332 21.1437 14.6274 21.0591C14.5216 20.9728 14.4395 20.8743 14.3809 20.7637C14.3223 20.6514 14.293 20.522 14.293 20.3755C14.293 20.2306 14.3231 20.0988 14.3833 19.98C14.4451 19.8612 14.5322 19.7586 14.6445 19.6724C14.7585 19.5845 14.8927 19.5169 15.0474 19.4697C15.202 19.4209 15.3729 19.3965 15.5601 19.3965C15.8237 19.3965 16.0508 19.4453 16.2412 19.543C16.4333 19.6406 16.5806 19.7716 16.6831 19.936C16.7873 20.1004 16.8394 20.2819 16.8394 20.4805H16.2314C16.2314 20.3633 16.2062 20.2599 16.1558 20.1704C16.1069 20.0793 16.0321 20.0076 15.9312 19.9556C15.8319 19.9035 15.7057 19.8774 15.5527 19.8774C15.4079 19.8774 15.2874 19.8994 15.1914 19.9434C15.0954 19.9873 15.0238 20.0467 14.9766 20.1216C14.9294 20.1965 14.9058 20.2811 14.9058 20.3755C14.9058 20.4422 14.9212 20.5033 14.9521 20.5586C14.9831 20.6123 15.0303 20.6628 15.0938 20.71C15.1572 20.7555 15.237 20.7987 15.333 20.8394C15.429 20.88 15.5422 20.9191 15.6724 20.9565C15.8693 21.0151 16.041 21.0802 16.1875 21.1519C16.334 21.2218 16.4561 21.3016 16.5537 21.3911C16.6514 21.4806 16.7246 21.5824 16.7734 21.6963C16.8223 21.8086 16.8467 21.9364 16.8467 22.0796C16.8467 22.2293 16.8166 22.3644 16.7563 22.4849C16.6961 22.6037 16.6099 22.7054 16.4976 22.79C16.3869 22.873 16.2534 22.9373 16.0972 22.9829C15.9425 23.0269 15.77 23.0488 15.5796 23.0488C15.4087 23.0488 15.2402 23.026 15.0742 22.9805C14.9098 22.9349 14.7601 22.8657 14.625 22.7729C14.4899 22.6785 14.3825 22.5614 14.3027 22.4214C14.223 22.2798 14.1831 22.1146 14.1831 21.9258H14.7959C14.7959 22.0413 14.8154 22.1398 14.8545 22.2212C14.8952 22.3026 14.9513 22.3693 15.0229 22.4214C15.0946 22.4718 15.1776 22.5093 15.272 22.5337C15.368 22.5581 15.4705 22.5703 15.5796 22.5703C15.7228 22.5703 15.8424 22.55 15.9385 22.5093C16.0361 22.4686 16.1094 22.4116 16.1582 22.3384C16.207 22.2651 16.2314 22.1805 16.2314 22.0845Z" fill="#00507D"/>
<path d="M30.1958 27.125V27.3203C30.1958 27.5889 30.1608 27.8298 30.0908 28.043C30.0208 28.2562 29.9207 28.4377 29.7905 28.5874C29.6619 28.7371 29.5073 28.8519 29.3267 28.9316C29.146 29.0098 28.9458 29.0488 28.7261 29.0488C28.508 29.0488 28.3086 29.0098 28.1279 28.9316C27.9489 28.8519 27.7935 28.7371 27.6616 28.5874C27.5298 28.4377 27.4272 28.2562 27.354 28.043C27.2824 27.8298 27.2466 27.5889 27.2466 27.3203V27.125C27.2466 26.8564 27.2824 26.6164 27.354 26.4048C27.4256 26.1916 27.5265 26.0101 27.6567 25.8604C27.7886 25.709 27.944 25.5942 28.123 25.5161C28.3037 25.4364 28.5031 25.3965 28.7212 25.3965C28.9409 25.3965 29.1411 25.4364 29.3218 25.5161C29.5024 25.5942 29.6579 25.709 29.7881 25.8604C29.9183 26.0101 30.0184 26.1916 30.0884 26.4048C30.16 26.6164 30.1958 26.8564 30.1958 27.125ZM29.583 27.3203V27.1201C29.583 26.9215 29.5635 26.7466 29.5244 26.5952C29.487 26.4422 29.4308 26.3145 29.356 26.2119C29.2827 26.1077 29.1924 26.0296 29.085 25.9775C28.9775 25.9238 28.8563 25.897 28.7212 25.897C28.5861 25.897 28.4657 25.9238 28.3599 25.9775C28.2541 26.0296 28.1637 26.1077 28.0889 26.2119C28.0156 26.3145 27.9595 26.4422 27.9204 26.5952C27.8813 26.7466 27.8618 26.9215 27.8618 27.1201V27.3203C27.8618 27.5189 27.8813 27.6947 27.9204 27.8477C27.9595 28.0007 28.0164 28.13 28.0913 28.2358C28.1678 28.34 28.259 28.4189 28.3647 28.4727C28.4705 28.5247 28.591 28.5508 28.7261 28.5508C28.8628 28.5508 28.984 28.5247 29.0898 28.4727C29.1956 28.4189 29.2852 28.34 29.3584 28.2358C29.4316 28.13 29.487 28.0007 29.5244 27.8477C29.5635 27.6947 29.583 27.5189 29.583 27.3203Z" fill="#00507D"/>
<path d="M11.0285 21.4756L5.37097 24.4663" stroke="#00507D" stroke-linecap="round" stroke-linejoin="round"/>
<path d="M11.0286 23.2202L5.37109 26.2109" stroke="#00507D" stroke-linecap="round" stroke-linejoin="round"/>
<path d="M20.1887 21.4757L25.8462 24.4664" stroke="#00507D" stroke-linecap="round" stroke-linejoin="round"/>
<path d="M20.1887 23.2202L25.8462 26.2109" stroke="#00507D" stroke-linecap="round" stroke-linejoin="round"/>
</svg>
